# xmcd
#
# Track frame offsets:
#	150
#	9520
#	20715
#	30067
#	40475
#	52617
#	62220
#	78590
#	90527
#	107577
#	119150
#	135717
#	151040
#	165850
#	182500
#	205327
#	221302
#	236730
#	256377
#	269885
#	285400
#	305452
#	325375
#
# Disc length: 4660 seconds
#
# Revision: 4
# Processed by: cddbd v1.5.2PL0 Copyright (c) Steve Scherf et al.
# Submitted via: EasyCDDAExtractor 16.1.0.1
#
DISCID=37123217
DTITLE=Various Artist - The No. 1 Country Album CD 2
DYEAR=1996
DGENRE=Country
TTITLE0=Frankie Laine - Rawhide
TTITLE1=Roger Miller - King Of The Road
TTITLE2=Buddy Holly - Peggy Sue Got Married
TTITLE3=Ricky Nelson - Hello Mary Lou
TTITLE4=Merle Haggard - Okie From Muskogee
TTITLE5=Waylon Jennings - Theme From The Dukes Of Hazzard
TTITLE6=Charlie Daniels Band - The Devil Went Down To Georgia
TTITLE7=Johnny Paycheck - Take This Job And Shove It
TTITLE8=CW McCall - Convoy
TTITLE9=Steve Earle - Guitar Town
TTITLE10=Emmylou Harris - Love Hurts
TTITLE11=Michelle Shocked - Anchorage
TTITLE12=Olivia Newton John - Take Me Home Country Roads
TTITLE13=Mary Chapin Carpenter - Shut Up And Kiss Me
TTITLE14=Trisha Yearwood - New Kid In Town
TTITLE15=Randy Travis - Forever And Ever, Amen
TTITLE16=Kathy Mattea - Walking Away Like A Winner
TTITLE17=Shania Twain - Who's Bed Have Your Boots Been Under?
TTITLE18=Tim McGraw - Indian Outlaw
TTITLE19=Martina McBride - Independence Day
TTITLE20=Dwight Yoakam - A Thousand Miles From Nowhere
TTITLE21=Hal Ketchum - Past The Point Of Rescue
TTITLE22=The Judds - Love Can Build A Bridge
EXTD=
EXTT0=
EXTT1=
EXTT2=
EXTT3=
EXTT4=
EXTT5=
EXTT6=
EXTT7=
EXTT8=
EXTT9=
EXTT10=
EXTT11=
EXTT12=
EXTT13=
EXTT14=
EXTT15=
EXTT16=
EXTT17=
EXTT18=
EXTT19=
EXTT20=
EXTT21=
EXTT22=
PLAYORDER=
